<svg width="252" height="106" fill="none" xmlns="http://www.w3.org/2000/svg"><path d="M.58 83.12h47.925V104h11.733V83.12h13.92V72.181h-13.92v-70H45.324L.579 72.977V83.12Zm47.925-10.938H13.903v-.796L47.71 17.892h.795v54.29ZM126 105.392c22.472 0 35.398-19.041 35.398-52.301C161.398 20.08 148.273.79 126 .79c-22.273 0-35.398 19.29-35.398 52.3 0 33.26 12.926 52.302 35.398 52.302Zm0-10.938c-14.815 0-23.466-14.864-23.466-41.363 0-26.449 8.75-41.563 23.466-41.563 14.716 0 23.466 15.114 23.466 41.563 0 26.498-8.651 41.363-23.466 41.363Zm51.903-11.335h47.927V104h11.732V83.12h13.921V72.181h-13.921v-70h-14.914l-44.745 70.795V83.12Zm47.927-10.937h-34.603v-.796l33.807-53.494h.796v54.29Z" fill="#000"/></svg>